<?xml version="1.0" encoding="utf-8"?>
<!-- Generator: Adobe Illustrator 18.0.0, SVG Export Plug-In . SVG Version: 6.00 Build 0)  -->
<!DOCTYPE svg PUBLIC "-//W3C//DTD SVG 1.1//EN" "http://www.w3.org/Graphics/SVG/1.1/DTD/svg11.dtd">
<svg version="1.1" id="图层_1" xmlns="http://www.w3.org/2000/svg" xmlns:xlink="http://www.w3.org/1999/xlink" x="0px" y="0px"
	 width="253.3px" height="434.7px" viewBox="0 0 253.3 434.7" enable-background="new 0 0 253.3 434.7" xml:space="preserve">
<g>
	<g>
		
			<ellipse transform="matrix(-0.2372 -0.9715 0.9715 -0.2372 -136.6864 260.8854)" fill="#2BC5E1" cx="34.1" cy="184.1" rx="10.6" ry="5.3"/>
		<path fill="#2BC5E1" d="M35.4,200.1L35.4,200.1c-0.8,0.3-1.7,0-2-0.8l-7.1-15.8c-0.3-0.8,0-1.7,0.8-2l0,0c0.8-0.3,1.7,0,2,0.8
			l7.1,15.8C36.6,198.9,36.2,199.8,35.4,200.1z"/>
	</g>
	<path fill="none" stroke="#2BC5E1" stroke-miterlimit="10" d="M36.1,199.2c0,0,28.2,54,24.5,97.5c-3.8,44.5,43.2,69,45,70.5
		s49.5,34.5,49.5,67.5"/>
	<path fill="none" stroke="#2BC5E1" stroke-miterlimit="10" d="M160.9,432c0,0-3.2-42,34-79.5c0,0,17.5-18.2,19.8-53.2"/>
</g>
</svg>
