<?xml version="1.0" encoding="utf-8"?>
<!-- Generator: Adobe Illustrator 18.0.0, SVG Export Plug-In . SVG Version: 6.00 Build 0)  -->
<!DOCTYPE svg PUBLIC "-//W3C//DTD SVG 1.1//EN" "http://www.w3.org/Graphics/SVG/1.1/DTD/svg11.dtd">
<svg version="1.1" id="图层_1" xmlns="http://www.w3.org/2000/svg" xmlns:xlink="http://www.w3.org/1999/xlink" x="0px" y="0px"
	 width="253.3px" height="434.7px" viewBox="0 0 253.3 434.7" enable-background="new 0 0 253.3 434.7" xml:space="preserve">
<path fill="#D4F2F8" d="M2.9,380.2c0,0,2.8-9.9,18.2-27.2c0,0,7-12.5,9.5-27c3-17.2,3.5-25.2,20.5-22c0,0,6.5,0,11.5,0.5
	s8-10,2.5-38.5s-5-14-11.5-42c0,0-13.5,2-19-6s-12-12.5-15.5-33.5s-5-37,8.5-31.5c0,0-16.5-43,7-92s88-65.5,119-55.5s74,38,84,73.5
	s8,68.5,8,68.5s2.5-3.5,4,0.5s3,37.5-10,51c0,0-2.5,25.5-6,41s-5.5,47.5-27,69.5l-6.5,7.5c0,0-7.5,5.2,1.5,17.5
	c9.5,13,18.5,8.5,35,35c0,0,9,10,0,10.5C227.6,380.5,2.9,380.2,2.9,380.2z"/>
</svg>
