<?xml version="1.0" encoding="utf-8"?>
<!-- Generator: Adobe Illustrator 18.0.0, SVG Export Plug-In . SVG Version: 6.00 Build 0)  -->
<!DOCTYPE svg PUBLIC "-//W3C//DTD SVG 1.1//EN" "http://www.w3.org/Graphics/SVG/1.1/DTD/svg11.dtd">
<svg version="1.1" id="图层_1" xmlns="http://www.w3.org/2000/svg" xmlns:xlink="http://www.w3.org/1999/xlink" x="0px" y="0px"
	 width="543.1px" height="240.2px" viewBox="0 0 543.1 240.2" enable-background="new 0 0 543.1 240.2" xml:space="preserve">
<g>
	<g>
		<g>
			<ellipse fill="#FFFFFF" cx="272.7" cy="128.2" rx="45.2" ry="64.7"/>
			<path fill="#FFFFFF" d="M272.7,194c-25.5,0-46.3-29.5-46.3-65.8s20.7-65.8,46.3-65.8c25.5,0,46.3,29.5,46.3,65.8
				S298.2,194,272.7,194z M272.7,64.5c-24.3,0-44.1,28.6-44.1,63.7c0,35.1,19.8,63.7,44.1,63.7c24.3,0,44.1-28.6,44.1-63.7
				C316.8,93.1,297,64.5,272.7,64.5z"/>
		</g>
		<g>
			<g>
				<path fill="#FFFFFF" d="M218.5,87.7c0,0,48.6-46.5-9.5-46.5L27.1,50.7c0,0-42.3,3.2,0,37c0,0,11.6,15.9,26.4,20.1
					c0,0,15.9,16.9,33.8,15.9c0,0,7.4,13.7,25.4,10.6c0,0,11.6,9.5,23.3,7.4c0,0,13.7,10.6,25.4,8.5c0,0,7.4,6.3,21.1,6.3
					c0,0,12.7,9.5,23.3,0c0,0,4.2,37.8,47.6,60.7c0,0,5.3,7.4,20.1,8.8v-8.8C273.5,217.1,185.7,182.9,218.5,87.7z"/>
				<path fill="#FFFFFF" d="M275.6,228.2l-2.3-0.2c-13.7-1.3-19.8-7.5-21.3-9.2c-36.3-19.3-45.5-48.5-47.7-58.6
					c-2.8,1.7-5.9,2.6-9.2,2.6c-6.2,0-11.5-3.1-13.2-4.2c-11.5-0.2-18.7-4.6-21-6.2c-0.9,0.1-1.7,0.2-2.6,0.2
					c-9.9,0-19.9-6.6-22.7-8.6c-1,0.1-1.9,0.2-2.9,0.2c-9.4,0-17.8-5.7-20.4-7.6c-1.6,0.2-3.2,0.4-4.7,0.4c-12.6,0-19.2-8-21.3-11
					c-16.7,0.1-31.2-13.5-33.8-16.1c-14.2-4.3-25.3-18.4-26.8-20.5C10.5,77.1,4.3,67.5,6.7,59.8C9.7,50,26.3,48.6,27,48.6L208.9,39
					c0,0,0,0,0,0c16.8,0,26.7,3.9,29.8,11.5c5.6,14-15.2,35.2-18.4,38.3c-13.1,38.5-8.1,71.4,15,97.8c17.3,19.8,38.7,28.3,39,28.4
					l1.3,0.5V228.2z M207.5,152.1l0.5,4.1c0,0.4,4.7,37,46.5,59l0.4,0.2l0.3,0.4c0,0,4.5,5.9,16.3,7.6v-5
					c-11.1-4.9-85.7-42.1-54.9-131.5l0.2-0.5l0.4-0.4c6.3-6,21.8-23.9,17.7-34.1c-2.3-5.8-11.2-8.8-25.8-8.8L27.2,52.8
					c-3.9,0.3-14.7,2.4-16.5,8.3C9.5,65,11.6,72.6,28.4,86l0.4,0.4c0.1,0.2,11.4,15.3,25.3,19.3l0.6,0.2l0.4,0.4
					c0.1,0.2,15.4,16.2,32.2,15.2l1.3-0.1l0.6,1.2c0.2,0.4,5.6,9.9,18.3,9.9c1.6,0,3.2-0.1,4.9-0.4l1-0.2l0.8,0.6
					c0.1,0.1,9,7.2,18.4,7.2c1.1,0,2.1-0.1,3.1-0.3l0.9-0.2l0.7,0.6c0.1,0.1,10.9,8.3,20.9,8.3c1,0,1.9-0.1,2.8-0.2l1-0.2l0.8,0.6
					c0.1,0.1,7.1,5.8,19.8,5.8h0.7l0.6,0.4c0,0,5.2,3.8,11.3,3.8c3.5,0,6.6-1.2,9.3-3.7L207.5,152.1z"/>
			</g>
			<g>
				<path fill="#FFFFFF" d="M14.4,63.3c-0.1-4.9,3.3-6.2,5.4-6.8c27.6-7.9,96.5-3.4,137.2,0.5c8.4,0.8-75.1,4.8-125.3,19.3
					C19.5,79.9,14.6,73.9,14.4,63.3z"/>
				<path fill="#FFFFFF" d="M25.4,79.5c-4.8,0-12.8-2.1-13.1-16.2c-0.1-6.8,5.2-8.3,7-8.8c10.3-2.9,26.9-4.4,49.5-4.4
					c32.5,0,69.4,3.1,88.5,4.9c2.3,0.2,2.5,1.6,2.5,2.2c0,2.2,0,2.2-15.1,3.6c-24.9,2.4-76.7,7.3-112.3,17.6
					C29.8,79.1,27.4,79.5,25.4,79.5z M68.8,54.3c-22.2,0-38.5,1.4-48.4,4.3c-2.6,0.7-4,1.7-3.9,4.7c0.2,12,6.7,12,8.9,12
					c1.7,0,3.6-0.3,5.8-0.9c32.5-9.4,78.2-14.3,105.1-17C116.8,55.8,91.7,54.3,68.8,54.3z"/>
			</g>
			<g>
				<path fill="#FFFFFF" d="M176.3,64.8c0,0-91.7-0.1-143.6,19c0,0,10,20.6,29.1,9.3C61.9,93,108.9,74.1,176.3,64.8z"/>
				<path fill="#FFFFFF" d="M50.8,98.6C50.8,98.6,50.8,98.6,50.8,98.6c-13,0-19.6-13.3-19.9-13.9l-1-2.1l2.2-0.8
					c51.4-18.9,140.5-19.1,144.3-19.1l0.3,4.2C110.2,76.1,63.1,94.8,62.7,95C58.8,97.3,54.7,98.6,50.8,98.6z M35.9,84.9
					c2.2,3.3,7.3,9.4,14.9,9.4c0,0,0,0,0,0c3.2,0,6.5-1,10-3.1c0.6-0.3,34.2-13.6,84.3-23.4C114.6,69.4,68.3,73.6,35.9,84.9z"/>
			</g>
			<g>
				<path fill="#FFFFFF" d="M195.4,74.5c0,0-89.1-0.8-134.3,25.9c0,0,5,18.3,21.9,9.5S138.7,78.3,195.4,74.5z"/>
				<path fill="#FFFFFF" d="M74.5,114.5c-11.6,0-15.3-12.9-15.4-13.5l-0.4-1.6l1.4-0.8c43.1-25.5,125.3-26.2,134.6-26.2l0.8,0
					l0.1,4.2c-51.8,3.4-87.8,22.6-107.1,32.8c-1.6,0.9-3.1,1.6-4.4,2.3C80.6,113.6,77.4,114.5,74.5,114.5z M63.6,101.4
					c1.2,2.9,4.3,8.8,10.8,8.8c2.3,0,4.8-0.7,7.6-2.2c1.3-0.7,2.8-1.5,4.4-2.3c13.1-7,36.5-19.4,68.3-27.1
					C126.1,81.2,88.6,87.3,63.6,101.4z"/>
			</g>
			<g>
				<path fill="#FFFFFF" d="M208.5,86c0,0-5.3-4.7-9.2-5.4c-3.9-0.6-70,4.4-109.1,31.7c0,0-3.7,3.2,0,6.8s12.1,8.1,17.8,2.8
					C113.7,116.6,148.6,89.5,208.5,86z"/>
				<path fill="#FFFFFF" d="M101.9,126.5C101.9,126.5,101.9,126.5,101.9,126.5c-5.2,0-10.3-3.1-13.1-5.8c-1.9-1.9-2.3-3.7-2.3-5
					c0.1-2.8,2.1-4.7,2.4-4.9c37.8-26.4,99.6-32.3,109.4-32.3c0.7,0,1.2,0,1.4,0.1c4.4,0.7,9.6,5.3,10.2,5.9l3.8,3.4l-5.1,0.3
					c-64.8,3.8-98.8,35.1-99.1,35.4C107.4,125.4,104.8,126.5,101.9,126.5z M198.2,82.7c-9.6,0-70.1,5.8-106.8,31.4
					c-0.1,0.1-0.7,0.9-0.7,1.7c0,0.6,0.3,1.2,1,1.8c2.3,2.2,6.5,4.6,10.2,4.6l0,0c1.9,0,3.4-0.6,4.7-1.8
					c0.3-0.3,33.5-30.8,96.1-36.1c-1.3-0.8-2.6-1.4-3.7-1.6C198.9,82.7,198.6,82.7,198.2,82.7z"/>
			</g>
			<g>
				<path fill="#FFFFFF" d="M209.9,93.4c0,0-4.1-3.6-14.5-1.5c-10.5,2.1-36.9,1.5-80.3,32.4c0,0,3.5,15.9,18.7,5
					C148.9,118.4,165.5,100.8,209.9,93.4z"/>
				<path fill="#FFFFFF" d="M124.3,135.3C124.3,135.3,124.3,135.3,124.3,135.3c-7.1,0-10.5-6.9-11.3-10.5l-0.3-1.4l1.1-0.8
					c37.6-26.8,62.4-30.1,75.7-31.9c2.1-0.3,3.9-0.5,5.4-0.8c2.3-0.5,4.6-0.7,6.6-0.7c6.5,0,9.4,2.4,9.7,2.7l3.3,2.9l-4.4,0.7
					c-37.2,6.2-54.4,19.5-68.2,30.2c-2.4,1.9-4.8,3.7-7,5.3C131.1,133.9,127.5,135.3,124.3,135.3z M117.6,125.2
					c0.8,2.1,2.7,5.9,6.7,5.9c0,0,0,0,0,0c2.3,0,5.1-1.2,8.2-3.4c2.2-1.6,4.5-3.4,6.9-5.3c12.6-9.7,27.8-21.6,57.8-28.6
					c-0.5,0.1-1,0.2-1.5,0.3c-1.5,0.3-3.4,0.6-5.6,0.9C177.3,96.6,153.6,99.8,117.6,125.2z"/>
			</g>
			<g>
				<path fill="#FFFFFF" d="M208.5,100.1c0,0-37.7,5.5-64.9,29.3c-8.5,7.4,5.6,15.5,11.6,9.9c6-5.6,20.1-25.5,50.8-33.1L208.5,100.1
					z"/>
				<path fill="#FFFFFF" d="M150.1,143.2L150.1,143.2c-4.7,0-9.4-2.8-10.8-6.6c-0.7-1.8-1.2-5.3,2.9-8.9
					c27.4-23.9,64.4-29.5,65.9-29.8l3.7-0.5l-4.3,10.4l-1,0.3c-25.3,6.3-39,21.1-46.3,29c-1.4,1.5-2.5,2.7-3.5,3.6
					C155,142.4,152.7,143.2,150.1,143.2z M205.1,102.9c-10.1,2.1-38.6,9.3-60,28.1c-1.7,1.4-2.2,2.9-1.7,4.2
					c0.8,2.1,3.9,3.8,6.8,3.8l0,0c1,0,2.5-0.2,3.7-1.3c0.9-0.8,2-2,3.3-3.4c7.5-8.2,21.5-23.2,47.4-30L205.1,102.9z"/>
			</g>
			<g>
				<path fill="#FFFFFF" d="M204.6,110.7v6.3c0,0-16.9,9.8-22.6,24.1c-5.6,14.3-21.9,2.7-16.2-4.4
					C171.5,129.7,182.8,117.7,204.6,110.7z"/>
				<path fill="#FFFFFF" d="M173.7,150c-4.2,0-8.5-2.7-10.3-6.5c-1.4-2.8-1.1-5.8,0.8-8.1c10.1-12.6,23.1-21.4,39.8-26.8l2.8-0.9
					v10.5l-1.1,0.6c-0.2,0.1-16.4,9.6-21.6,23C182,147,178.2,150,173.7,150z M202.5,113.6c-14.5,5.2-26,13.2-35,24.5
					c-0.8,1.1-0.9,2.3-0.3,3.7c1.1,2.3,3.9,4.1,6.5,4.1c2.8,0,5-1.9,6.4-5.5c5.1-12.9,18.5-22.1,22.4-24.5V113.6z"/>
			</g>
			<g>
				<path fill="#FFFFFF" d="M204.6,122.3c0,0-27.1,21.1-14.1,27.5C203.6,156.1,201.9,141.7,204.6,122.3z"/>
				<path fill="#FFFFFF" d="M195.8,153.4C195.8,153.4,195.8,153.4,195.8,153.4c-1.8,0-3.8-0.6-6.2-1.7c-3.5-1.7-4.5-4.3-4.7-6.2
					c-1-9.5,16.4-23.4,18.4-24.9l4.1-3.2l-0.7,5.2c-0.5,3.6-0.9,7-1.2,10.1C204.4,144.3,203.4,153.4,195.8,153.4z M201.9,127.4
					c-6.3,5.6-13.2,13.3-12.7,17.7c0.1,0.7,0.4,1.8,2.3,2.8c1.8,0.9,3.2,1.3,4.4,1.3l0,0c3.6,0,4.4-6.1,5.5-16.9
					C201.5,130.7,201.7,129.1,201.9,127.4z"/>
			</g>
		</g>
		<g>
			<path fill="#FFFFFF" d="M248.4,80.3c0,0,24.5-8,46.8,0c22.2,8-6.3-21.9-23.4-21.2C254.7,59.8,230.6,86.8,248.4,80.3z"/>
			<path fill="#FFFFFF" d="M301,83.8c-1.6,0-3.8-0.5-6.6-1.5c-6.3-2.3-13.5-3.4-21.3-3.4c-13.3,0-24,3.4-24.1,3.5
				c-2,0.8-3.7,1.1-5,1.1c0,0,0,0,0,0c-2.9,0-4-1.9-4-3.5c-0.1-6.6,18.2-22.4,31.6-23l0.7,0c13.1,0,33,16.4,33,23
				C305.4,81.8,304.2,83.8,301,83.8z M273.1,74.6c8.3,0,15.9,1.2,22.7,3.7c2.8,1,4.4,1.2,5.1,1.2c0,0,0,0,0,0
				c-0.3-0.8-1.3-2.5-3.9-5.1c-6.3-6.4-17.1-13.2-24.8-13.2l-0.5,0c-11.5,0.5-25.6,13.7-27.4,17.9c0.7-0.1,1.7-0.3,3.2-0.8
				C248.2,78.1,259.1,74.6,273.1,74.6z"/>
		</g>
		<g>
			<path fill="#FFFFFF" d="M283.8,65.2h-23.4c-1.2,0-2.4-0.8-2.9-1.9l-1.8-4.3c-0.6-1.4-0.2-3.1,1-3.9c13.4-9.8,25.8-3.6,30.7-0.4
				c1.3,0.9,1.8,2.6,1.2,4l-1.9,4.6C286.2,64.4,285.1,65.2,283.8,65.2z"/>
			<path fill="#FFFFFF" d="M283.8,67.3h-23.4c-2.1,0-4-1.3-4.8-3.2l-1.8-4.3c-1-2.3-0.3-5,1.7-6.5c5.2-3.8,10.7-5.7,16.5-5.7
				c7.5,0,13.6,3.3,16.6,5.3c2.1,1.4,3,4.2,2,6.6l-1.9,4.6C287.8,66,285.9,67.3,283.8,67.3z M272,51.8c-4.9,0-9.6,1.7-14,4.9
				c-0.4,0.3-0.5,0.9-0.3,1.4l1.8,4.3c0.2,0.4,0.5,0.7,0.9,0.7h23.4c0.4,0,0.8-0.3,0.9-0.7l1.9-4.6c0.2-0.5,0-1.2-0.4-1.5
				C283.7,54.6,278.4,51.8,272,51.8z"/>
		</g>
		<g>
			<g>
				<path fill="#FFFFFF" d="M324.3,87.7c0,0-48.6-46.5,9.5-46.5l181.9,9.5c0,0,42.3,3.2,0,37c0,0-11.6,15.9-26.4,20.1
					c0,0-15.9,16.9-33.8,15.9c0,0-7.4,13.7-25.4,10.6c0,0-11.6,9.5-23.3,7.4c0,0-13.7,10.6-25.4,8.5c0,0-7.4,6.3-21.1,6.3
					c0,0-12.7,9.5-23.3,0c0,0-4.2,37.8-47.6,60.7c0,0-5.3,7.4-20.1,8.8v-8.8C269.3,217.1,357,182.9,324.3,87.7z"/>
				<path fill="#FFFFFF" d="M267.1,228.2v-12.5l1.3-0.5c0.2-0.1,21.8-8.7,39.1-28.6c23-26.4,28-59.3,14.9-97.7
					c-3.2-3.1-24-24.3-18.4-38.3c3.1-7.6,13.1-11.5,29.7-11.5l182,9.5c0.7,0.1,17.3,1.4,20.3,11.3c2.4,7.6-3.8,17.2-18.9,29.3
					c-1.6,2.1-12.6,16.1-26.8,20.5c-2.6,2.7-16.9,16.3-33.8,16.1c-2.1,3-8.7,11-21.3,11c-1.5,0-3.1-0.1-4.7-0.4
					c-2.6,1.9-11,7.6-20.4,7.6c-1,0-2-0.1-2.9-0.2c-2.8,2-12.8,8.6-22.7,8.6c-0.9,0-1.8-0.1-2.6-0.2c-2.3,1.7-9.5,6.1-21.1,6.2
					c-1.7,1.1-7,4.2-13.2,4.2c-3.3,0-6.4-0.9-9.2-2.6c-2.2,10.1-11.4,39.3-47.7,58.6c-1.5,1.7-7.6,7.9-21.3,9.2L267.1,228.2z
					 M271.4,218.5v5c11.8-1.8,16.2-7.6,16.3-7.6l0.7-0.6c41.9-22.1,46.4-58.7,46.5-59l0.5-4.1l3.1,2.8c2.7,2.4,5.8,3.7,9.3,3.7
					c6.1,0,11.2-3.8,11.3-3.8l0.6-0.4h0.7c12.8,0,19.7-5.8,19.8-5.8l0.8-0.7l1,0.2c0.9,0.2,1.8,0.2,2.8,0.2c9.9,0,20.8-8.2,20.9-8.3
					l0.7-0.6l0.9,0.2c1,0.2,2,0.3,3.1,0.3c9.5,0,18.4-7.2,18.4-7.2l0.8-0.6l1,0.2c1.7,0.3,3.3,0.4,4.9,0.4c12.7,0,18.1-9.5,18.3-9.9
					l0.6-1.2l1.3,0.1c16.8,1,32-15,32.2-15.2l0.4-0.4l0.6-0.2c13.9-4,25.2-19.2,25.3-19.3l0.4-0.4c16.8-13.5,18.9-21,17.7-24.9
					c-1.8-5.9-12.6-8-16.6-8.3l-181.8-9.5c-14.4,0-23.4,3.1-25.7,8.8c-4.1,10.1,11.4,28,17.7,34.1l0.4,0.4l0.2,0.5
					C357.1,176.4,282.5,213.5,271.4,218.5z"/>
			</g>
			<g>
				<path fill="#FFFFFF" d="M528.4,63.3c0.1-4.9-3.3-6.2-5.4-6.8c-27.6-7.9-96.5-3.4-137.2,0.5c-8.4,0.8,75.1,4.8,125.3,19.3
					C523.3,79.9,528.2,73.9,528.4,63.3z"/>
				<path fill="#FFFFFF" d="M517.4,79.5C517.4,79.5,517.4,79.5,517.4,79.5c-2.1,0-4.4-0.4-7-1.1c-35.6-10.3-87.4-15.2-112.3-17.6
					C383,59.4,383,59.4,383,57.2c0-0.6,0.2-2,2.5-2.2c19.1-1.8,56-4.9,88.4-4.9c22.6,0,39.3,1.5,49.5,4.4c1.8,0.5,7.1,2,7,8.8
					C530.2,77.4,522.2,79.5,517.4,79.5z M406.5,57.4c27,2.6,72.7,7.6,105.1,17c2.2,0.6,4.1,0.9,5.8,0.9c0,0,0,0,0,0
					c2.2,0,8.6,0,8.8-12c0.1-3-1.3-4-3.9-4.7c-9.9-2.8-26.2-4.3-48.4-4.3C451.1,54.3,425.9,55.8,406.5,57.4z"/>
			</g>
			<g>
				<path fill="#FFFFFF" d="M366.4,64.8c0,0,91.7-0.1,143.6,19c0,0-10,20.6-29.1,9.3C480.9,93,433.8,74.1,366.4,64.8z"/>
				<path fill="#FFFFFF" d="M492,98.6c-3.9,0-8-1.2-12.2-3.7c-0.2,0-47.3-18.8-113.7-28l0.3-4.2c3.8,0,92.8,0.2,144.3,19.1l2.2,0.8
					l-1,2.1C511.6,85.3,505,98.6,492,98.6z M397.7,67.8c50.2,9.7,83.6,23.1,84,23.2c3.8,2.2,7.1,3.3,10.3,3.3
					c7.6,0,12.7-6.1,14.9-9.4C474.5,73.6,428.1,69.4,397.7,67.8z"/>
			</g>
			<g>
				<path fill="#FFFFFF" d="M347.4,74.5c0,0,89.1-0.8,134.3,25.9c0,0-5,18.3-21.9,9.5S404.1,78.3,347.4,74.5z"/>
				<path fill="#FFFFFF" d="M468.3,114.5c-3,0-6.2-0.9-9.5-2.6c-1.3-0.7-2.8-1.5-4.4-2.3C435,99.2,399,80,347.3,76.6l0.1-4.2l0.8,0
					c9.2,0,91.4,0.7,134.6,26.2l1.4,0.8l-0.4,1.6C483.6,101.5,479.9,114.5,468.3,114.5z M388,78.6c31.8,7.7,55.2,20.1,68.3,27.1
					c1.6,0.9,3.1,1.6,4.4,2.3c2.7,1.4,5.3,2.2,7.6,2.2c6.5,0,9.7-6,10.8-8.8C454.2,87.3,416.7,81.2,388,78.6z"/>
			</g>
			<g>
				<path fill="#FFFFFF" d="M334.3,86c0,0,5.3-4.7,9.2-5.4c3.9-0.6,70,4.4,109.1,31.7c0,0,3.7,3.2,0,6.8c-3.7,3.5-12.1,8.1-17.8,2.8
					C429.1,116.6,394.2,89.5,334.3,86z"/>
				<path fill="#FFFFFF" d="M440.9,126.5c-2.9,0-5.5-1-7.6-3c-0.3-0.3-34.4-31.6-99.1-35.4l-5.1-0.3l3.8-3.4
					c0.6-0.5,5.9-5.2,10.2-5.9c0.3,0,0.7-0.1,1.4-0.1c9.8,0,71.6,5.9,109.2,32.2c0.4,0.4,2.5,2.2,2.5,5.1c0,1.2-0.4,3.1-2.3,5
					C451.2,123.3,446.1,126.5,440.9,126.5z M340.1,84.3c62.6,5.3,95.7,35.8,96,36.1c1.3,1.2,2.9,1.8,4.7,1.8c3.6,0,7.8-2.4,10.2-4.6
					c0.7-0.6,1-1.3,1-1.8c0-1-0.9-1.8-0.9-1.8c-36.5-25.5-97-31.2-106.6-31.2c-0.4,0-0.6,0-0.8,0C342.7,82.9,341.4,83.5,340.1,84.3z
					"/>
			</g>
			<g>
				<path fill="#FFFFFF" d="M332.9,93.4c0,0,4.1-3.6,14.5-1.5c10.5,2.1,36.9,1.5,80.3,32.4c0,0-3.5,15.9-18.7,5
					S377.3,100.8,332.9,93.4z"/>
				<path fill="#FFFFFF" d="M418.5,135.3c-3.2,0-6.8-1.4-10.7-4.2c-2.3-1.6-4.6-3.4-7-5.3c-13.8-10.7-31-24-68.2-30.2l-4.4-0.7
					l3.3-2.9c0.3-0.3,3.2-2.7,9.7-2.7c2.1,0,4.3,0.2,6.6,0.7c1.5,0.3,3.3,0.5,5.4,0.8c13.3,1.8,38.2,5.1,75.7,31.9l1.1,0.8l-0.3,1.4
					C428.9,128.4,425.6,135.3,418.5,135.3z M345.5,93.8c30,7,45.3,18.8,57.8,28.6c2.4,1.9,4.7,3.6,6.9,5.3c3.2,2.3,5.9,3.4,8.2,3.4
					c4,0,6-3.8,6.7-5.9c-36-25.4-59.8-28.5-72.6-30.3c-2.2-0.3-4.1-0.6-5.6-0.9C346.5,93.9,346,93.9,345.5,93.8z"/>
			</g>
			<g>
				<path fill="#FFFFFF" d="M334.3,100.1c0,0,37.7,5.5,64.9,29.3c8.5,7.4-5.6,15.5-11.6,9.9c-6-5.6-20.1-25.5-50.8-33.1L334.3,100.1
					z"/>
				<path fill="#FFFFFF" d="M392.6,143.2c-2.6,0-4.9-0.9-6.6-2.5c-0.9-0.9-2.1-2.1-3.5-3.6c-7.3-7.9-21-22.7-46.4-29l-1-0.3
					l-4.3-10.4l3.7,0.5c1.6,0.2,38.6,5.8,65.9,29.8c4.1,3.6,3.6,7.1,2.9,8.9C402,140.4,397.4,143.2,392.6,143.2z M338.3,104.3
					c25.9,6.7,39.9,21.8,47.4,30c1.3,1.4,2.4,2.6,3.3,3.4c1.2,1.1,2.6,1.3,3.7,1.3c2.9,0,6-1.8,6.8-3.8c0.5-1.3-0.1-2.8-1.7-4.2
					c-21.5-18.8-49.9-26-60-28.1L338.3,104.3z"/>
			</g>
			<g>
				<path fill="#FFFFFF" d="M338.1,110.7v6.3c0,0,16.9,9.8,22.6,24.1c5.6,14.3,21.9,2.7,16.2-4.4C371.3,129.7,360,117.7,338.1,110.7
					z"/>
				<path fill="#FFFFFF" d="M369,150L369,150c-4.5,0-8.3-3-10.3-8.2c-5.3-13.5-21.5-22.9-21.6-23l-1.1-0.6v-10.5l2.8,0.9
					c16.7,5.4,29.7,14.1,39.8,26.8c1.9,2.3,2.2,5.3,0.8,8.1C377.6,147.3,373.2,150,369,150z M340.3,115.8
					c3.9,2.5,17.3,11.6,22.4,24.5c1.4,3.6,3.6,5.5,6.4,5.5l0,0c2.6,0,5.4-1.8,6.5-4.1c0.7-1.4,0.6-2.6-0.3-3.7
					c-9-11.3-20.5-19.3-35-24.5V115.8z"/>
			</g>
			<g>
				<path fill="#FFFFFF" d="M338.1,122.3c0,0,27.1,21.1,14.1,27.5C339.2,156.1,340.9,141.7,338.1,122.3z"/>
				<path fill="#FFFFFF" d="M347,153.4c-7.6,0-8.6-9.1-9.7-20.7c-0.3-3.1-0.7-6.6-1.2-10.1l-0.7-5.2l4.1,3.2
					c2,1.6,19.4,15.4,18.4,24.9c-0.2,1.9-1.2,4.4-4.7,6.2C350.8,152.8,348.8,153.4,347,153.4z M340.9,127.4c0.2,1.7,0.4,3.4,0.5,4.9
					c1.1,10.8,1.9,16.9,5.5,16.9c1.1,0,2.6-0.4,4.3-1.3c1.9-0.9,2.3-2,2.3-2.8C354.1,140.7,347.2,132.9,340.9,127.4z"/>
			</g>
		</g>
		<path fill="#FFFFFF" d="M258.5,54.1c-5.2-9.6-22.2-35.1-38.2-37.1c-5.6-0.7-10.6,1.5-15.4,6.7c-4.4,4.8-6.1,9.1-4.5,11.7
			c1.6,2.7,6.2,4,10.1,3c3-0.8,4.6-2.6,4.7-5.5l8,0.2c-0.2,6.5-4.2,11.4-10.7,13.1c-7.4,1.9-15.6-0.9-19.1-6.7
			c-2.1-3.5-4.2-10.9,5.5-21.3c6.6-7.1,14.1-10.2,22.4-9.2c23.3,3,43.4,39.7,44.3,41.3L258.5,54.1z"/>
		<path fill="#FFFFFF" d="M283.9,54.1l-7.1-3.8c0.8-1.6,20.9-38.3,44.3-41.3c8.2-1,15.7,2,22.3,9.2c9.6,10.4,7.6,17.8,5.5,21.3
			c-3.4,5.7-11.6,8.6-19.1,6.7c-6.5-1.7-10.5-6.6-10.7-13.1l8-0.2c0.1,2.9,1.7,4.7,4.7,5.5c3.9,1,8.5-0.4,10.1-3
			c1.6-2.7,0-6.9-4.5-11.7c-4.8-5.2-9.9-7.4-15.4-6.7C306.1,19,289.1,44.5,283.9,54.1z"/>
	</g>
	<g>
		<linearGradient id="SVGID_1_" gradientUnits="userSpaceOnUse" x1="227.5068" y1="128.201" x2="317.8994" y2="128.201">
			<stop  offset="3.168846e-02" style="stop-color:#183E7F"/>
			<stop  offset="8.093729e-02" style="stop-color:#17447F"/>
			<stop  offset="0.2524" style="stop-color:#155780"/>
			<stop  offset="0.4284" style="stop-color:#136580"/>
			<stop  offset="0.6086" style="stop-color:#126F7F"/>
			<stop  offset="0.7956" style="stop-color:#12757F"/>
			<stop  offset="1" style="stop-color:#11777F"/>
		</linearGradient>
		<ellipse fill="url(#SVGID_1_)" cx="272.7" cy="128.2" rx="45.2" ry="64.7"/>
		<g>
			<path fill="#C1C1BF" d="M272.7,194c-25.5,0-46.3-29.5-46.3-65.8s20.7-65.8,46.3-65.8c25.5,0,46.3,29.5,46.3,65.8
				S298.2,194,272.7,194z M272.7,64.5c-24.3,0-44.1,28.6-44.1,63.7c0,35.1,19.8,63.7,44.1,63.7c24.3,0,44.1-28.6,44.1-63.7
				C316.8,93.1,297,64.5,272.7,64.5z"/>
		</g>
		<g>
			<path fill="#C1C1BF" d="M218.5,87.7c0,0,48.6-46.5-9.5-46.5L27.1,50.7c0,0-42.3,3.2,0,37c0,0,11.6,15.9,26.4,20.1
				c0,0,15.9,16.9,33.8,15.9c0,0,7.4,13.7,25.4,10.6c0,0,11.6,9.5,23.3,7.4c0,0,13.7,10.6,25.4,8.5c0,0,7.4,6.3,21.1,6.3
				c0,0,12.7,9.5,23.3,0c0,0,4.2,37.8,47.6,60.7c0,0,5.3,7.4,20.1,8.8v-8.8C273.5,217.1,185.7,182.9,218.5,87.7z"/>
			<linearGradient id="SVGID_2_" gradientUnits="userSpaceOnUse" x1="86.0082" y1="77.3975" x2="86.0082" y2="52.1952">
				<stop  offset="0" style="stop-color:#183E7F"/>
				<stop  offset="1" style="stop-color:#11777F"/>
			</linearGradient>
			<path fill="url(#SVGID_2_)" d="M14.4,63.3c-0.1-4.9,3.3-6.2,5.4-6.8c27.6-7.9,96.5-3.4,137.2,0.5c8.4,0.8-75.1,4.8-125.3,19.3
				C19.5,79.9,14.6,73.9,14.4,63.3z"/>
			<linearGradient id="SVGID_3_" gradientUnits="userSpaceOnUse" x1="104.5612" y1="96.4501" x2="104.5612" y2="64.7964">
				<stop  offset="0" style="stop-color:#183E7F"/>
				<stop  offset="1" style="stop-color:#11777F"/>
			</linearGradient>
			<path fill="url(#SVGID_3_)" d="M176.3,64.8c0,0-91.7-0.1-143.6,19c0,0,10,20.6,29.1,9.3C61.9,93,108.9,74.1,176.3,64.8z"/>
			<linearGradient id="SVGID_4_" gradientUnits="userSpaceOnUse" x1="128.2221" y1="112.3467" x2="128.2221" y2="74.5227">
				<stop  offset="0" style="stop-color:#183E7F"/>
				<stop  offset="1" style="stop-color:#11777F"/>
			</linearGradient>
			<path fill="url(#SVGID_4_)" d="M195.4,74.5c0,0-89.1-0.8-134.3,25.9c0,0,5,18.3,21.9,9.5S138.7,78.3,195.4,74.5z"/>
			<linearGradient id="SVGID_5_" gradientUnits="userSpaceOnUse" x1="148.5588" y1="124.338" x2="148.5588" y2="80.5728">
				<stop  offset="0" style="stop-color:#183E7F"/>
				<stop  offset="1" style="stop-color:#11777F"/>
			</linearGradient>
			<path fill="url(#SVGID_5_)" d="M208.5,86c0,0-5.3-4.7-9.2-5.4s-70,4.4-109.1,31.7c0,0-3.7,3.2,0,6.8s12.1,8.1,17.8,2.8
				C113.7,116.6,148.6,89.5,208.5,86z"/>
			<linearGradient id="SVGID_6_" gradientUnits="userSpaceOnUse" x1="162.5018" y1="133.1676" x2="162.5018" y2="91.3046">
				<stop  offset="0" style="stop-color:#183E7F"/>
				<stop  offset="1" style="stop-color:#11777F"/>
			</linearGradient>
			<path fill="url(#SVGID_6_)" d="M209.9,93.4c0,0-4.1-3.6-14.5-1.5c-10.5,2.1-36.9,1.5-80.3,32.4c0,0,3.5,15.9,18.7,5
				C148.9,118.4,165.5,100.8,209.9,93.4z"/>
			<linearGradient id="SVGID_7_" gradientUnits="userSpaceOnUse" x1="174.7554" y1="141.0933" x2="174.7554" y2="100.0808">
				<stop  offset="0" style="stop-color:#183E7F"/>
				<stop  offset="1" style="stop-color:#11777F"/>
			</linearGradient>
			<path fill="url(#SVGID_7_)" d="M208.5,100.1c0,0-37.7,5.5-64.9,29.3c-8.5,7.4,5.6,15.5,11.6,9.9c6-5.6,20.1-25.5,50.8-33.1
				L208.5,100.1z"/>
			<linearGradient id="SVGID_8_" gradientUnits="userSpaceOnUse" x1="184.6505" y1="147.9076" x2="184.6505" y2="110.6555">
				<stop  offset="0" style="stop-color:#183E7F"/>
				<stop  offset="1" style="stop-color:#11777F"/>
			</linearGradient>
			<path fill="url(#SVGID_8_)" d="M204.6,110.7v6.3c0,0-16.9,9.8-22.6,24.1c-5.6,14.3-21.9,2.7-16.2-4.4
				C171.5,129.7,182.8,117.7,204.6,110.7z"/>
			<linearGradient id="SVGID_9_" gradientUnits="userSpaceOnUse" x1="195.802" y1="151.2944" x2="195.802" y2="122.2876">
				<stop  offset="0" style="stop-color:#183E7F"/>
				<stop  offset="1" style="stop-color:#11777F"/>
			</linearGradient>
			<path fill="url(#SVGID_9_)" d="M204.6,122.3c0,0-27.1,21.1-14.1,27.5C203.6,156.1,201.9,141.7,204.6,122.3z"/>
		</g>
		<path fill="#AFAEAA" d="M248.4,80.3c0,0,24.5-8,46.8,0s-6.3-21.9-23.4-21.2S230.6,86.8,248.4,80.3z"/>
		<path fill="#AFAEAA" d="M283.8,65.2h-23.4c-1.2,0-2.4-0.8-2.9-1.9l-1.8-4.3c-0.6-1.4-0.2-3.1,1-3.9c13.4-9.8,25.8-3.6,30.7-0.4
			c1.3,0.9,1.8,2.6,1.2,4l-1.9,4.6C286.2,64.4,285.1,65.2,283.8,65.2z"/>
		<g>
			<path fill="#C1C1BF" d="M324.3,87.7c0,0-48.6-46.5,9.5-46.5l181.9,9.5c0,0,42.3,3.2,0,37c0,0-11.6,15.9-26.4,20.1
				c0,0-15.9,16.9-33.8,15.9c0,0-7.4,13.7-25.4,10.6c0,0-11.6,9.5-23.3,7.4c0,0-13.7,10.6-25.4,8.5c0,0-7.4,6.3-21.1,6.3
				c0,0-12.7,9.5-23.3,0c0,0-4.2,37.8-47.6,60.7c0,0-5.3,7.4-20.1,8.8v-8.8C269.3,217.1,357,182.9,324.3,87.7z"/>
			
				<linearGradient id="SVGID_10_" gradientUnits="userSpaceOnUse" x1="2256.4946" y1="77.3975" x2="2256.4946" y2="52.1952" gradientTransform="matrix(-1 0 0 1 2713.2571 0)">
				<stop  offset="0" style="stop-color:#183E7F"/>
				<stop  offset="1" style="stop-color:#11777F"/>
			</linearGradient>
			<path fill="url(#SVGID_10_)" d="M528.4,63.3c0.1-4.9-3.3-6.2-5.4-6.8c-27.6-7.9-96.5-3.4-137.2,0.5c-8.4,0.8,75.1,4.8,125.3,19.3
				C523.3,79.9,528.2,73.9,528.4,63.3z"/>
			
				<linearGradient id="SVGID_11_" gradientUnits="userSpaceOnUse" x1="2275.0476" y1="96.4501" x2="2275.0476" y2="64.7964" gradientTransform="matrix(-1 0 0 1 2713.2571 0)">
				<stop  offset="0" style="stop-color:#183E7F"/>
				<stop  offset="1" style="stop-color:#11777F"/>
			</linearGradient>
			<path fill="url(#SVGID_11_)" d="M366.4,64.8c0,0,91.7-0.1,143.6,19c0,0-10,20.6-29.1,9.3C480.9,93,433.8,74.1,366.4,64.8z"/>
			
				<linearGradient id="SVGID_12_" gradientUnits="userSpaceOnUse" x1="2298.7085" y1="112.3467" x2="2298.7085" y2="74.5227" gradientTransform="matrix(-1 0 0 1 2713.2571 0)">
				<stop  offset="0" style="stop-color:#183E7F"/>
				<stop  offset="1" style="stop-color:#11777F"/>
			</linearGradient>
			<path fill="url(#SVGID_12_)" d="M347.4,74.5c0,0,89.1-0.8,134.3,25.9c0,0-5,18.3-21.9,9.5C442.8,101.1,404.1,78.3,347.4,74.5z"/>
			
				<linearGradient id="SVGID_13_" gradientUnits="userSpaceOnUse" x1="2319.0452" y1="124.338" x2="2319.0452" y2="80.5728" gradientTransform="matrix(-1 0 0 1 2713.2571 0)">
				<stop  offset="0" style="stop-color:#183E7F"/>
				<stop  offset="1" style="stop-color:#11777F"/>
			</linearGradient>
			<path fill="url(#SVGID_13_)" d="M334.3,86c0,0,5.3-4.7,9.2-5.4c3.9-0.6,70,4.4,109.1,31.7c0,0,3.7,3.2,0,6.8s-12.1,8.1-17.8,2.8
				C429.1,116.6,394.2,89.5,334.3,86z"/>
			
				<linearGradient id="SVGID_14_" gradientUnits="userSpaceOnUse" x1="2332.9883" y1="133.1676" x2="2332.9883" y2="91.3046" gradientTransform="matrix(-1 0 0 1 2713.2571 0)">
				<stop  offset="0" style="stop-color:#183E7F"/>
				<stop  offset="1" style="stop-color:#11777F"/>
			</linearGradient>
			<path fill="url(#SVGID_14_)" d="M332.9,93.4c0,0,4.1-3.6,14.5-1.5c10.5,2.1,36.9,1.5,80.3,32.4c0,0-3.5,15.9-18.7,5
				S377.3,100.8,332.9,93.4z"/>
			
				<linearGradient id="SVGID_15_" gradientUnits="userSpaceOnUse" x1="2345.2419" y1="141.0933" x2="2345.2419" y2="100.0808" gradientTransform="matrix(-1 0 0 1 2713.2571 0)">
				<stop  offset="0" style="stop-color:#183E7F"/>
				<stop  offset="1" style="stop-color:#11777F"/>
			</linearGradient>
			<path fill="url(#SVGID_15_)" d="M334.3,100.1c0,0,37.7,5.5,64.9,29.3c8.5,7.4-5.6,15.5-11.6,9.9c-6-5.6-20.1-25.5-50.8-33.1
				L334.3,100.1z"/>
			
				<linearGradient id="SVGID_16_" gradientUnits="userSpaceOnUse" x1="2355.137" y1="147.9076" x2="2355.137" y2="110.6555" gradientTransform="matrix(-1 0 0 1 2713.2571 0)">
				<stop  offset="0" style="stop-color:#183E7F"/>
				<stop  offset="1" style="stop-color:#11777F"/>
			</linearGradient>
			<path fill="url(#SVGID_16_)" d="M338.1,110.7v6.3c0,0,16.9,9.8,22.6,24.1s21.9,2.7,16.2-4.4C371.3,129.7,360,117.7,338.1,110.7z"
				/>
			
				<linearGradient id="SVGID_17_" gradientUnits="userSpaceOnUse" x1="2366.2886" y1="151.2944" x2="2366.2886" y2="122.2876" gradientTransform="matrix(-1 0 0 1 2713.2571 0)">
				<stop  offset="0" style="stop-color:#183E7F"/>
				<stop  offset="1" style="stop-color:#11777F"/>
			</linearGradient>
			<path fill="url(#SVGID_17_)" d="M338.1,122.3c0,0,27.1,21.1,14.1,27.5C339.2,156.1,340.9,141.7,338.1,122.3z"/>
		</g>
		<path fill="#AFAEAA" d="M258.8,54c-0.2-0.3-19-34.8-38.4-37.3c-5.7-0.7-10.8,1.5-15.7,6.8c-4.5,4.9-6.2,9.3-4.5,12.1
			c1.7,2.8,6.5,4.2,10.5,3.2c2.2-0.6,4.8-2,4.9-5.8l7.4,0.2c-0.2,6.3-4.1,11.1-10.4,12.8c-7.3,1.9-15.3-0.9-18.7-6.5
			c-2-3.4-4.1-10.7,5.4-20.9c6.5-7.1,14-10.1,22.1-9.1c23.2,2.9,43.2,39.6,44,41.1L258.8,54z"/>
		<path fill="#AFAEAA" d="M283.7,54l-6.5-3.5c0.8-1.6,20.8-38.2,44-41.1c8.1-1,15.5,2,22.1,9.1c9.5,10.3,7.5,17.5,5.4,20.9
			c-3.4,5.6-11.4,8.4-18.7,6.5c-6.3-1.7-10.2-6.4-10.4-12.8l7.4-0.2c0.1,3.8,2.7,5.3,4.9,5.8c4,1,8.8-0.4,10.5-3.2
			c1.7-2.8,0-7.2-4.5-12.1c-4.9-5.3-10-7.5-15.7-6.8C305.9,18.7,288.9,44.3,283.7,54z"/>
	</g>
</g>
<radialGradient id="SVGID_18_" cx="286.6971" cy="115.8101" r="31.6698" gradientTransform="matrix(-0.4895 -1.0387 0.9992 -0.3863 317.0026 450.4911)" gradientUnits="userSpaceOnUse">
	<stop  offset="0" style="stop-color:#FFFFFF;stop-opacity:0.6"/>
	<stop  offset="1" style="stop-color:#FDFDFD;stop-opacity:0"/>
</radialGradient>
<ellipse opacity="0.5" fill="url(#SVGID_18_)" cx="280.3" cy="120.1" rx="29.3" ry="37.2"/>
</svg>
