<?xml version="1.0" encoding="utf-8"?>
<!-- Generator: Adobe Illustrator 18.0.0, SVG Export Plug-In . SVG Version: 6.00 Build 0)  -->
<!DOCTYPE svg PUBLIC "-//W3C//DTD SVG 1.1//EN" "http://www.w3.org/Graphics/SVG/1.1/DTD/svg11.dtd">
<svg version="1.1" id="图层_1" xmlns="http://www.w3.org/2000/svg" xmlns:xlink="http://www.w3.org/1999/xlink" x="0px" y="0px"
	 width="303px" height="413.8px" viewBox="0 0 303 413.8" enable-background="new 0 0 303 413.8" xml:space="preserve">
<g>
	<line fill="none" stroke="#A8A8A8" stroke-width="4" stroke-miterlimit="10" x1="31.2" y1="198.1" x2="46.3" y2="201.5"/>
	<line fill="none" stroke="#A8A8A8" stroke-width="4" stroke-miterlimit="10" x1="45.4" y1="200.3" x2="44.3" y2="214.8"/>
	<path fill="none" stroke="#A8A8A8" stroke-width="4" stroke-miterlimit="10" d="M45.5,201.5c0,0-72.5,29.6-8.5,117.7"/>
	<g>
		<g>
			<path opacity="0.4" fill="#2B92E1" enable-background="new    " d="M82.6,234.9l-27.8,31.4c-2.1,2.4-5.1,1.4-6.5-2.3l-32-85.7
				c-1.4-3.6-0.7-8.7,1.4-11.1l27.8-31.4c2.1-2.4,5.1-1.4,6.5,2.3l32,85.7C85.4,227.5,84.7,232.4,82.6,234.9z"/>
			<path fill="#2B92E1" d="M78.3,233.7l-27.8,31.4c-2.1,2.4-5.1,1.4-6.5-2.3l-32-85.7c-1.4-3.7-0.7-8.7,1.4-11.1l27.8-31.4
				c2.1-2.4,5.1-1.4,6.5,2.3l32,85.5C81.2,226.2,80.5,231.1,78.3,233.7z"/>
		</g>
		<g>
			<line fill="none" stroke="#FFFFFF" stroke-width="3" stroke-miterlimit="10" x1="30.8" y1="198.3" x2="46" y2="201.5"/>
			<line fill="none" stroke="#FFFFFF" stroke-width="3" stroke-miterlimit="10" x1="45" y1="200.3" x2="43.9" y2="214.9"/>
			<path fill="none" stroke="#FFFFFF" stroke-width="3" stroke-miterlimit="10" d="M45.3,201.5c0,0-72.5,29.6-8.5,117.7"/>
		</g>
	</g>
</g>
</svg>
